<svg xmlns="http://www.w3.org/2000/svg" width="142" height="142" viewBox="0 0 142 142">
  <defs>
    <linearGradient id="imageqlogomarkcolor-a" x1="84.042%" x2="3.612%" y1="49.994%" y2="49.994%">
      <stop offset="0%" stop-color="#000A8B" stop-opacity="0"/>
      <stop offset="100%" stop-color="#000A8B" stop-opacity=".7"/>
    </linearGradient>
    <linearGradient id="imageqlogomarkcolor-b" x1="22.212%" x2="99.95%" y1="50.063%" y2="50.063%">
      <stop offset="0%" stop-color="#000A8B" stop-opacity="0"/>
      <stop offset="100%" stop-color="#000A8B" stop-opacity=".6"/>
    </linearGradient>
    <linearGradient id="imageqlogomarkcolor-c" x1="-178.911%" x2="91.18%" y1="50.046%" y2="50.046%">
      <stop offset="0%" stop-color="#000A8B" stop-opacity="0"/>
      <stop offset="100%" stop-color="#000A8B" stop-opacity=".7"/>
    </linearGradient>
  </defs>
  <g fill="none" transform="translate(3)">
    <path fill="#009DE2" d="M93.7,99.3 C83.8,99.4 79.5,103.5 72.8,109.2 C72.8,109.2 70.8,111.2 67.9,111.2 C66.6,111.2 64.8,110.9 63.2,109.2 L26.6,72.6 C24,70 24,65.8 26.6,63.2 L63.2,26.6 C64.8,25 66.7,24.6 67.9,24.6 C69.2,24.6 71,24.9 72.6,26.6 L109.2,63.2 C110.8,64.8 111.2,66.7 111.2,67.9 C111.2,69.1 110.9,71 109.2,72.6 L101.4,80.4 C100.7,81.1 100.7,82.3 101.4,83 L115.6,97.2 C116.4,98 117.8,98 118.6,97.2 L126.2,89.6 C138.2,77.6 138.2,58.2 126.2,46.2 L89.6,9.6 C83.6,3.6 75.7,0.6 67.9,0.6 C60,0.6 52.2,3.6 46.2,9.6 L9.6,46.2 C-2.4,58.2 -2.4,77.6 9.6,89.6 L46.2,126.2 C52.2,132.2 60.1,135.2 67.9,135.2 C75.8,135.2 83.6,132.2 89.6,126.2 C89.6,126.2 91.4,124.1 94.3,124.1 C97.3,124.2 99,126.3 100.7,128 L113.3,140.9 C114.4,142 117.8,142.8 117.8,140 L117.9,118.3 C117.9,118.3 117.8,114.2 116.1,112.3 L114.8,110.8 C109.4,104.7 103.2,99.3 93.7,99.3 Z"/>
    <path fill="url(#imageqlogomarkcolor-a)" d="M46.2,9.6 L13.5,42.3 C9.3,47.9 9.8,55.9 14.9,61 L26.6,72.6 C25,71 24.6,69.1 24.6,67.9 C24.6,66.7 24.9,64.8 26.6,63.2 L63.2,26.6 C65.8,24 70,24 72.6,26.6 L109.2,63.2 C110.8,64.8 111.2,66.7 111.2,67.9 C111.2,69.2 110.9,71 109.2,72.6 L121,61 C126,56 126.6,48.1 122.6,42.5 L89.7,9.6 C77.7,-2.4 58.2,-2.4 46.2,9.6 Z"/>
    <path fill="url(#imageqlogomarkcolor-b)" d="M114.8,111 C109.4,104.7 103.2,99.4 93.7,99.4 C83.8,99.5 79.5,103.6 72.8,109.3 C72.8,109.3 70.8,111.3 67.9,111.3 C66.6,111.3 64.8,111 63.2,109.3 L26.6,72.7 L26.6,72.7 L14.9,61 C9.8,55.9 9.3,47.9 13.5,42.3 L9.6,46.2 C-2.4,58.2 -2.4,77.6 9.6,89.6 L46.2,126.2 C52.2,132.2 60.1,135.2 67.9,135.2 C75.7,135.2 83.6,132.2 89.6,126.2 C89.6,126.2 91.4,124.1 94.3,124.1 C97.3,124.2 99,126.3 100.7,128 L113.3,140.9 C114.4,142 117.8,142.8 117.8,140 L117.9,118.3 C117.9,118.3 117.8,114.2 116.1,112.3 L114.8,111 Z"/>
    <path fill="url(#imageqlogomarkcolor-c)" d="M126.2,46.2 L122.5,42.5 C126.5,48.1 126,56 120.9,61 L109.2,72.6 L109.2,72.6 L101.4,80.4 C100.7,81.1 100.7,82.3 101.4,83 L115.6,97.2 C116.4,98 117.8,98 118.6,97.2 L126.2,89.6 C138.2,77.6 138.2,58.2 126.2,46.2 Z"/>
  </g>
</svg>
