<svg xmlns="http://www.w3.org/2000/svg" width="540" height="540" viewBox="0 0 540 540">
  <g transform="translate(15 4)">
    <path d="M428.8 416.805594C408.559441 393.191608 385.32028 372.951049 349.711888 372.951049 312.604196 373.325874 296.111888 388.693706 271.373427 410.058741 271.373427 410.058741 263.876923 417.555245 253.006993 417.555245 248.134266 417.555245 241.387413 416.430769 235.39021 410.058741L197.532867 372.201399C196.783217 371.451748 195.658741 370.702098 194.909091 369.952448L56.2237762 231.267133C40.8559441 215.899301 32.9846154 196.033566 32.234965 175.793007-10.8699301 220.772028-10.1202797 292.363636 34.1090909 336.593007L171.295105 473.779021C193.784615 496.268531 223.395804 507.513287 252.632168 507.513287 281.868531 507.513287 311.47972 496.268531 333.969231 473.779021 333.969231 473.779021 340.716084 465.907692 351.586014 465.907692 362.830769 466.282517 369.202797 474.153846 375.574825 480.525874L422.802797 529.253147C426.925874 533.376224 439.66993 536.374825 439.66993 525.87972L440.044755 444.542657C440.044755 444.542657 439.66993 429.174825 433.297902 422.053147L428.8 416.805594zM473.779021 176.167832C473.029371 196.408392 465.158042 216.274126 449.79021 231.267133L377.448951 303.608392C375.94965 306.232168 376.324476 309.605594 378.573427 311.854545L431.798601 365.07972C434.797203 368.078322 440.044755 368.078322 443.043357 365.07972L471.53007 336.593007C515.759441 292.363636 516.509091 221.146853 473.779021 176.167832"/>
    <path d="M455.412587,157.426573 L334.344056,36.358042 C289.365035,-8.62097902 216.274126,-8.62097902 171.295105,36.358042 L50.6013986,157.426573 C45.3538462,179.166434 50.9762238,202.78042 67.8433566,219.647552 L92.9566434,244.760839 C94.0811189,242.511888 95.5804196,239.888112 97.8293706,237.639161 L235.015385,100.453147 C244.760839,90.7076923 260.503497,90.7076923 270.248951,100.453147 L407.434965,237.639161 C409.683916,239.888112 411.558042,242.511888 412.682517,244.760839 L437.795804,219.647552 C450.165035,207.278322 456.911888,190.786014 456.911888,173.169231 C457.286713,167.921678 456.537063,162.674126 455.412587,157.426573"/>
  </g>
</svg>
